<svg width="512" height="512" viewBox="0 0 512 512" fill="none" xmlns="http://www.w3.org/2000/svg">
<path d="M135.099 145.216C194.271 145.216 233.197 180.304 251.875 250.481C270.405 320.732 309.328 355.857 368.646 355.857C427.968 355.857 466.894 320.732 485.423 250.481C467.393 343.941 428.468 390.671 368.646 390.671C308.829 390.671 269.905 343.941 251.875 250.481C222.75 157.02 183.824 110.29 135.099 110.29C86.3734 110.29 47.4479 157.02 18.3223 250.481C37.0009 180.304 75.9264 145.216 135.099 145.216Z" fill="#0FE2EA" stroke="#0FE2EA" stroke-width="10.179" stroke-miterlimit="3" stroke-linecap="square"/>
<path d="M18.3223 251.09L485.423 246.824L485.423 255.357L18.3223 251.09Z" fill="#0FE2EA" stroke="#0FE2EA" stroke-width="12.1905"/>
<path d="M485.425 230.89C496.234 230.89 505.006 239.667 505.006 250.48C505.006 261.294 496.234 270.07 485.425 270.07C474.616 270.07 465.844 261.294 465.844 250.48C465.844 239.667 474.616 230.89 485.425 230.89Z" fill="#0FE2EA" stroke="#0FE2EA" stroke-width="12.1905"/>
<path d="M18.3239 240.686C23.7283 240.686 28.1145 245.074 28.1145 250.481C28.1145 255.888 23.7283 260.276 18.3239 260.276C12.9195 260.276 8.53333 255.888 8.53333 250.481C8.53333 245.074 12.9195 240.686 18.3239 240.686Z" fill="#0FE2EA" stroke="#0FE2EA" stroke-width="12.1905"/>
</svg>
