<?xml version="1.0" standalone="no"?>
<!DOCTYPE svg PUBLIC "-//W3C//DTD SVG 20010904//EN"
 "http://www.w3.org/TR/2001/REC-SVG-20010904/DTD/svg10.dtd">
<svg version="1.0" xmlns="http://www.w3.org/2000/svg"
 width="700.000000pt" height="700.000000pt" viewBox="0 0 700.000000 700.000000"
 preserveAspectRatio="xMidYMid meet">
<metadata>
Created by potrace 1.14, written by Peter Selinger 2001-2017
</metadata>
<g transform="translate(0.000000,700.000000) scale(0.100000,-0.100000)"
fill="#000000" stroke="none">
<path d="M1750 5558 c-176 -26 -298 -63 -419 -130 -226 -124 -456 -359 -632
-645 -33 -54 -64 -105 -70 -113 -62 -94 -324 -686 -383 -862 -3 -10 -15 -18
-27 -18 -55 0 -140 -66 -166 -128 -64 -153 56 -316 221 -299 49 5 135 47 136
66 1 3 9 16 20 29 22 27 -52 25 765 17 204 -2 716 -7 1140 -10 424 -4 835 -8
915 -9 l144 -1 47 -185 c101 -397 203 -662 355 -920 252 -429 609 -686 1037
-748 100 -14 386 -7 477 12 263 54 481 166 661 338 83 79 196 210 236 274 116
181 195 334 264 506 42 105 130 375 144 438 10 48 18 55 60 58 109 8 223 89
277 199 28 57 32 76 32 147 0 68 -4 91 -28 144 -37 79 -121 159 -198 187 -73
26 -175 25 -251 -5 -65 -25 -153 -103 -180 -160 l-17 -35 -212 -1 c-117 -1
-575 -5 -1018 -9 -443 -4 -982 -8 -1199 -9 l-393 -1 -48 135 c-113 323 -283
698 -421 925 -40 66 -77 125 -81 130 -5 6 -33 44 -63 85 -207 280 -440 463
-703 549 -98 33 -130 39 -252 47 -47 3 -92 6 -100 7 -8 2 -40 -1 -70 -5z m273
-622 c294 -30 538 -129 742 -299 215 -179 385 -434 498 -747 49 -135 71 -203
69 -209 -1 -2 -163 -5 -359 -6 -445 -4 -1757 -16 -2195 -20 -311 -3 -328 -2
-333 16 -3 10 -19 32 -35 49 l-30 32 46 126 c58 158 92 231 167 357 257 429
617 661 1087 701 41 4 76 7 77 8 5 4 207 -2 266 -8z m2447 -1491 c432 -4 949
-8 1150 -10 201 -2 439 -4 530 -5 l165 0 33 -50 c18 -28 50 -63 72 -78 22 -15
39 -33 40 -39 0 -22 -89 -218 -142 -310 -80 -139 -155 -240 -263 -349 -268
-271 -592 -398 -1015 -398 -413 1 -734 122 -994 377 -52 51 -116 121 -144 157
-127 165 -241 388 -323 627 -31 93 -33 89 56 87 27 -1 403 -5 835 -9z"/>
</g>
</svg>
