<?xml version="1.0" standalone="no"?>
<!DOCTYPE svg PUBLIC "-//W3C//DTD SVG 20010904//EN"
 "http://www.w3.org/TR/2001/REC-SVG-20010904/DTD/svg10.dtd">
<svg version="1.0" xmlns="http://www.w3.org/2000/svg"
 width="700.000000pt" height="700.000000pt" viewBox="0 0 700.000000 700.000000"
 preserveAspectRatio="xMidYMid meet">
<metadata>
Created by potrace 1.14, written by Peter Selinger 2001-2017
</metadata>
<g transform="translate(0.000000,700.000000) scale(0.100000,-0.100000)"
fill="#000000" stroke="none">
<path d="M1740 5554 c-58 -7 -126 -17 -152 -23 -94 -22 -265 -97 -334 -148
-17 -13 -36 -23 -42 -23 -7 0 -12 -4 -12 -9 0 -4 -19 -21 -42 -37 -66 -43
-245 -228 -326 -336 -40 -54 -100 -141 -133 -195 -33 -54 -64 -105 -70 -113
-5 -8 -23 -43 -41 -77 -17 -34 -36 -59 -41 -56 -6 3 -7 1 -3 -5 9 -14 -25 -83
-37 -75 -6 3 -7 1 -3 -5 3 -6 -11 -48 -33 -94 -50 -107 -154 -358 -196 -472
l-32 -89 -45 -12 c-160 -40 -218 -243 -102 -359 34 -34 103 -67 142 -68 72 -2
163 44 191 96 12 22 27 30 52 28 6 -1 1114 -11 1599 -15 157 -2 290 -6 296
-10 6 -3 14 -3 18 0 4 4 156 6 339 4 183 -2 405 -4 494 -5 l163 -1 9 -25 c5
-14 12 -38 16 -55 10 -53 13 -68 45 -185 17 -63 33 -122 35 -130 2 -8 8 -30
14 -47 5 -18 7 -33 3 -33 -4 0 -2 -4 3 -8 8 -5 66 -157 79 -207 2 -5 13 -32
25 -60 13 -27 30 -68 39 -90 8 -22 35 -77 58 -122 24 -46 40 -83 36 -83 -4 0
-2 -4 4 -8 6 -4 36 -48 67 -97 57 -94 123 -181 205 -273 26 -29 46 -58 44 -63
-1 -6 2 -8 7 -5 5 3 31 -14 57 -39 54 -50 213 -159 284 -194 89 -45 102 -51
110 -51 5 0 21 -5 37 -12 15 -6 35 -12 43 -14 8 -2 16 -8 18 -14 2 -5 8 -8 12
-5 5 3 35 -1 67 -9 95 -24 130 -27 303 -31 167 -4 230 2 375 35 91 20 301 102
340 133 6 4 33 22 60 40 57 37 64 42 154 119 164 140 316 350 443 611 32 65
58 120 58 121 0 2 7 20 15 40 8 20 16 39 16 43 0 5 4 13 9 18 4 6 22 55 40
110 18 55 37 102 42 103 4 2 6 7 4 11 -3 4 4 36 15 72 24 73 23 71 34 122 8
40 19 51 50 53 56 2 151 39 182 70 8 7 20 17 26 21 25 16 74 89 93 138 12 33
19 75 19 125 -1 136 -74 249 -202 312 -52 26 -76 31 -136 32 -109 1 -176 -25
-252 -99 -33 -33 -66 -73 -73 -90 l-12 -30 -243 -1 c-133 -1 -568 -5 -967 -8
-399 -4 -924 -9 -1168 -11 l-443 -4 -10 27 c-6 15 -12 34 -14 42 -5 24 -61
179 -88 245 -14 33 -45 110 -70 170 -68 165 -175 392 -199 423 -6 6 -7 12 -2
12 5 0 4 4 -2 8 -6 4 -25 34 -43 67 -18 32 -41 71 -52 86 -10 15 -19 32 -19
37 0 6 -4 12 -8 14 -4 2 -19 21 -32 43 -14 22 -30 47 -37 55 -55 68 -123 162
-123 170 0 6 -7 10 -15 10 -14 0 -20 12 -16 33 1 5 -2 6 -7 3 -5 -3 -29 16
-54 42 -147 156 -370 303 -510 337 -16 4 -25 12 -21 18 3 5 1 7 -5 3 -5 -3
-39 0 -74 9 -34 8 -99 17 -143 20 -44 4 -84 8 -90 9 -5 1 -57 -3 -115 -10z
m270 -618 c41 -3 86 -8 100 -11 26 -5 52 -10 107 -20 18 -3 43 -9 56 -14 14
-6 28 -7 31 -4 3 4 6 1 6 -5 0 -7 3 -11 8 -10 41 9 347 -140 392 -191 3 -4 21
-18 40 -33 202 -152 416 -469 515 -763 14 -44 29 -87 32 -95 3 -8 14 -36 23
-62 l17 -48 -46 -1 c-317 -5 -418 -4 -430 5 -11 8 -13 8 -8 -1 9 -15 -95 -14
-105 1 -6 8 -8 8 -8 0 0 -8 -78 -12 -272 -13 -149 -1 -275 -4 -280 -7 -4 -3
-8 0 -8 6 0 6 -5 8 -11 4 -6 -3 -228 -8 -492 -10 -265 -2 -650 -6 -854 -8
-353 -3 -373 -3 -378 15 -3 10 -19 32 -35 49 l-29 31 46 127 c70 195 160 366
272 517 64 86 224 242 311 304 74 52 250 147 250 135 0 -4 6 -2 13 3 20 16
151 59 207 69 45 7 78 14 100 19 14 3 63 8 110 11 47 4 86 7 87 8 4 3 157 -3
233 -8z m2048 -1487 c216 -1 395 -6 398 -11 3 -4 13 -4 22 0 20 10 107 10 118
0 4 -4 12 -4 18 -1 6 4 108 6 226 5 118 -2 326 -4 462 -5 135 -1 250 -5 254
-9 4 -4 12 -4 18 0 16 10 60 8 68 -3 5 -7 8 -6 8 0 0 7 35 10 98 8 53 -1 204
-2 334 -3 222 -1 237 -2 243 -20 7 -22 92 -113 119 -127 14 -8 17 -17 12 -37
-4 -16 -11 -24 -18 -20 -7 4 -8 3 -4 -5 4 -6 2 -26 -6 -43 -22 -54 -96 -200
-130 -260 -82 -142 -287 -385 -316 -373 -7 2 -10 0 -7 -5 6 -10 -17 -40 -30
-40 -3 0 -18 -11 -32 -24 -14 -13 -37 -30 -52 -38 -14 -7 -28 -16 -31 -20 -11
-14 -157 -87 -163 -81 -4 3 -7 1 -7 -5 0 -8 -40 -27 -80 -37 -3 -1 -12 -4 -20
-8 -48 -18 -91 -28 -101 -21 -7 4 -9 3 -6 -3 13 -21 -232 -56 -393 -56 -100 0
-278 10 -289 17 -3 2 -24 7 -46 10 -22 4 -58 11 -80 17 -22 6 -48 13 -57 14
-68 14 -313 126 -355 163 -10 10 -37 30 -61 45 -55 36 -225 201 -216 210 4 4
2 7 -4 7 -12 0 -130 152 -140 180 -3 8 -11 22 -18 30 -59 70 -259 543 -233
552 5 2 30 2 56 2 27 -1 225 -3 441 -5z"/>
<path d="M1279 4553 c-13 -16 -12 -17 4 -4 16 13 21 21 13 21 -2 0 -10 -8 -17
-17z"/>
<path d="M5070 2960 c0 -5 5 -10 11 -10 5 0 7 5 4 10 -3 6 -8 10 -11 10 -2 0
-4 -4 -4 -10z"/>
<path d="M5395 2960 c-3 -5 -1 -10 4 -10 6 0 11 5 11 10 0 6 -2 10 -4 10 -3 0
-8 -4 -11 -10z"/>
<path d="M5715 2960 c-3 -5 -1 -10 4 -10 6 0 11 5 11 10 0 6 -2 10 -4 10 -3 0
-8 -4 -11 -10z"/>
<path d="M4195 2811 c-3 -5 -2 -12 3 -15 5 -3 9 1 9 9 0 17 -3 19 -12 6z"/>
<path d="M4195 2720 c-3 -5 -1 -10 4 -10 6 0 11 5 11 10 0 6 -2 10 -4 10 -3 0
-8 -4 -11 -10z"/>
<path d="M4270 2719 c0 -5 5 -7 10 -4 6 3 10 8 10 11 0 2 -4 4 -10 4 -5 0 -10
-5 -10 -11z"/>
</g>
</svg>
