<svg width="330" height="48" viewBox="0 0 330 48" fill="none" xmlns="http://www.w3.org/2000/svg">
<path opacity="0.7" d="M10.5753 47.8452C15.5162 45.8007 20.8399 44.4801 26.3095 43.9422C31.9402 43.3689 37.5044 42.391 42.9392 41.0197C36.2517 40.9047 29.5586 41.1332 22.8982 41.7039C16.7172 42.1312 11.7876 42.7074 10.0274 41.3612C9.14769 40.6953 9.76645 39.9388 11.4074 39.2405C12.4088 38.8193 13.4483 38.4649 14.5162 38.1805C15.7627 37.8854 17.183 37.6118 18.6895 37.3346C24.788 36.2945 32.448 36.0786 37.4472 35.5138C36.053 35.2704 36.0516 35.2418 34.6422 35.042C35.9257 35.3988 37.3217 35.3766 38.5954 34.9791C35.804 34.4351 30.4279 34.3705 28.6539 33.4405C29.4277 33.0216 30.1864 32.6463 30.9624 32.2703C28.7833 31.8078 26.5444 31.5588 24.2912 31.5282C23.0442 31.4651 21.7174 31.5342 20.3885 31.5605C19.0595 31.5867 17.6644 31.6729 16.2679 31.7306C10.6861 32.0471 4.87189 33.2474 0.22611 33.6255C5.42227 32.6545 10.6848 31.9585 15.982 31.5417C17.2873 31.3875 18.5617 31.3062 19.854 31.2385L23.711 30.9789C26.2454 30.8742 28.879 30.6795 31.3832 30.6621C41.6243 30.2392 51.9673 30.1274 62.4368 29.7811C67.6091 29.5675 72.7814 29.3539 77.9494 29.0545C83.1174 28.7551 87.9428 28.1689 93.302 27.5463C103.78 26.3397 114.209 25.1638 124.235 24.2481C145.349 21.4172 166.212 17.3712 186.673 12.1393C192.953 11.3961 199.287 11.034 205.623 11.0557C211.223 10.4089 216.823 9.76203 222.384 9.03078C225.164 8.658 227.943 8.25664 230.702 7.81306C233.462 7.36949 236.133 6.88652 238.836 6.35927C261.861 3.15838 284.66 3.03387 309.719 0.0786348C314.718 -0.500401 322.078 2.29129 309.838 4.54521C299.764 6.71899 289.517 8.27265 279.18 9.19349C280.242 7.97443 285.244 8.16912 287.439 7.13261C280.271 7.13358 273.105 7.50129 265.984 8.23357L280.867 6.64447C268.444 8.01735 254.725 9.02815 241.225 10.6175C236.27 11.0371 231.686 7.78671 224.751 10.7674C233.825 10.837 242.69 10.8866 251.819 10.6816C260.948 10.4766 270.065 10.0428 279.18 9.19349L279.184 9.2793C287.294 8.38548 294.659 7.80904 302.549 6.99597C300.223 7.45203 297.856 7.73679 295.473 7.84703C307.043 7.74188 318.399 6.80008 329.789 5.8711C298.248 12.9063 262.483 13.8958 230.359 17.2145C239.614 18.4948 251.396 15.0129 259.543 16.6113C244.748 17.8528 229.886 18.4666 214.496 18.8871C215.61 18.6978 216.721 18.4656 217.814 18.2055C208.223 17.4693 198.166 19.1458 188.642 19.4101L186.091 19.5155L188.642 19.4101C197.394 19.2637 206.007 19.0943 214.529 18.8571C210.264 19.5205 205.937 19.8528 201.604 19.8494C205.028 20.4081 208.515 20.6771 212.01 20.6522L227.11 19.9571C219.606 20.5017 212.15 21.4656 204.794 22.842C215.338 22.9512 226.142 22.3904 236.685 22.127L219.38 23.6298C209.664 23.8447 199.863 24.0918 189.948 24.4583L191.064 24.3262L188.827 24.5046L177.138 24.9873C173.658 25.3102 170.217 25.8936 166.859 26.7302L165.135 26.8014C166.202 26.3847 166.701 25.9915 164.574 25.9504C155.463 25.481 145.823 27.8999 135.265 27.1607C131.798 27.1115 128.334 27.3989 124.941 28.0169C124.585 27.9187 124.203 27.8962 123.832 27.9516C123.46 28.007 123.111 28.1385 122.815 28.334L120.26 28.7118C118.16 28.8665 116.073 29.1298 114.01 29.5001C116.056 29.301 118.168 29.0275 120.26 28.7118L122.597 28.472C121.999 28.945 121.229 29.2392 120.41 29.3076C134.916 28.4793 149.95 27.8727 165.046 26.762C164.165 27.0994 162.905 27.4668 162.398 27.7027L166.785 26.6329C171.656 26.2598 176.523 25.8295 181.387 25.3134C180.03 25.5814 178.711 25.9723 177.454 26.479C191.38 25.8037 205.319 24.6978 219.287 23.5047C232.472 23.2182 245.467 22.9253 258.425 22.2468C251.162 21.8328 243.873 21.751 236.593 22.0019C256.27 20.2721 275.935 18.2704 295.709 17.4252C292.332 18.9978 287.564 20.3843 285.583 22.2289C285.829 23.0213 292.206 22.7149 288.568 23.5388C275.388 27.0497 265.484 25.9252 260.442 30.8199C259.522 32.1334 275.223 35.1826 270.416 36.4846C266.342 37.2405 259.016 38.2596 251.042 39.1192C248.732 39.2146 246.336 39.3135 243.853 39.416C243.538 39.343 243.035 39.6361 242.412 39.9628C233.693 40.7671 225.597 41.2591 221.055 41.2747L216.045 41.2809C215.236 41.1126 214.472 40.8236 213.791 40.4281C212.791 40.7882 211.761 41.0847 210.708 41.315C206.254 41.3747 201.852 41.4609 197.504 41.5736C195.057 41.345 192.606 41.0449 190.195 40.8578C190.21 41.1439 190.676 41.4973 190.243 41.8161C184.795 42.0411 179.399 42.264 174.002 42.4868C171.902 42.2945 169.846 41.8634 167.892 41.2056C162.248 44.09 148.653 43.4332 139.338 44.4198L139.343 44.5056L125.116 45.3797C124.318 45.1997 123.538 44.9684 122.784 44.6878C121.634 45.1939 120.396 45.3166 119.822 45.5697C115.983 45.5132 112.704 45.233 109.424 44.9385C108.597 45.5304 107.63 45.9709 106.586 46.2309C104.086 46.3341 101.662 46.5632 99.3076 46.8181L90.894 47.1655L87.0837 47.3229C85.7734 47.377 84.4459 47.4318 83.2009 47.4116C80.645 47.4311 78.1566 47.4192 75.7178 47.3623C70.8243 47.2777 66.0811 47.0866 61.442 46.9055C61.1568 46.5799 60.9827 46.1962 60.9375 45.7942C59.5142 46.3546 57.4935 46.0224 56.2326 46.3754C56.3461 46.325 56.4388 46.2474 56.4988 46.1529C56.5588 46.0583 56.5833 45.9512 56.569 45.8455C52.3965 46.7058 51.5901 45.7789 47.8173 45.6481C47.0022 45.8344 46.2054 46.0734 45.4342 46.3627L44.2232 46.3268C39.864 44.83 35.8027 45.8432 31.3386 46.4002C26.8831 46.5496 22.4416 46.9389 18.0421 47.5655C16.6949 47.8217 15.3058 47.879 13.9387 47.735C12.8166 47.6952 11.6917 47.732 10.5753 47.8452Z" fill="#0FE2EA"/>
</svg>
